<?xml version="1.0" encoding="UTF-8"?>
<svg width="512pt" height="512pt" version="1.1" viewBox="0 0 512 512" xmlns="http://www.w3.org/2000/svg">
 <path d="m378.88 167.89-107.52-61.441c-4.668-2.6953-9.9688-4.1172-15.359-4.1172s-10.691 1.4219-15.359 4.1172l-107.52 61.441c-4.6797 2.6992-8.5664 6.5898-11.262 11.273-2.6992 4.6836-4.1133 9.9961-4.0977 15.398v122.88c-0.015625 5.4023 1.3984 10.715 4.0977 15.398 2.6953 4.6836 6.582 8.5742 11.262 11.273l107.52 61.441c9.5039 5.4883 21.215 5.4883 30.719 0l107.52-61.441c4.6797-2.6992 8.5664-6.5898 11.262-11.273 2.6992-4.6836 4.1133-9.9961 4.0977-15.398v-122.88c0.015625-5.4023-1.3984-10.715-4.0977-15.398-2.6953-4.6836-6.582-8.5742-11.262-11.273zm-122.88-34.766 50.586 28.93v-0.003906c-2.2812 27.121-11.539 53.191-26.879 75.676-26.891-30.285-62.781-51.156-102.4-59.547zm-107.52 72.039c43.215 2.8086 83.406 23.152 111.26 56.316-29.621 29.297-69.598 45.727-111.26 45.723zm107.52 173.72-76.289-43.57c36.547-6.125 70.484-22.863 97.59-48.129 11.684 21.004 18.406 44.402 19.66 68.406zm107.52-61.438-37.477 21.402v-0.003906c-3.5-26.809-12.738-52.551-27.086-75.469 19.031-24.809 31.594-53.965 36.555-84.836l28.008 16.023z" fill="#424242"/>
</svg>
